<svg xmlns="http://www.w3.org/2000/svg" xmlns:svg="http://www.w3.org/2000/svg" xmlns:xlink="http://www.w3.org/1999/xlink" id="svg4747" width="19" height="19" version="1.1" viewBox="0 0 19 19"><defs id="defs4749"><linearGradient id="linearGradient4787" x1="2" x2="17" y1="1062.862" y2="1062.862" gradientTransform="translate(-1072.3622,-1053.3622)" gradientUnits="userSpaceOnUse" xlink:href="#linearGradient4509"/><linearGradient id="linearGradient4509"><stop id="stop4885" offset="0" stop-color="#949494" stop-opacity="1"/><stop id="stop4887" offset=".5" stop-color="#9f9f9f" stop-opacity="1"/><stop id="stop4889" offset="1" stop-color="#cbcbcb" stop-opacity="1"/></linearGradient><linearGradient id="linearGradient4789" x1="-1065.362" x2="-1055.362" y1="9.5" y2="9.5" gradientTransform="translate(2125.7244,0)" gradientUnits="userSpaceOnUse" xlink:href="#linearGradient4521"/><linearGradient id="linearGradient4521"><stop id="stop4293" offset="0" stop-color="#fff" stop-opacity="1"/><stop id="stop4295" offset="1" stop-color="#fff" stop-opacity="0"/></linearGradient><linearGradient id="linearGradient4791" x1="-1065.276" x2="-1055.621" y1="9.5" y2="9.5" gradientTransform="matrix(1.0357118,0,0,1.0357118,2163.6811,-0.33926172)" gradientUnits="userSpaceOnUse" xlink:href="#linearGradient4521"/></defs><metadata id="metadata4752"/><g id="layer1" transform="translate(295.60105,-849.03082)"><g id="g4775" display="inline" transform="translate(-295.60104,-204.33136)"><circle stroke-width="8" style="marker:none" id="circle4777" cx="9.5" cy="1062.862" r="8.5" fill="#c7c7c7" fill-opacity="1" fill-rule="nonzero" stroke="none" d="m 17.999992,1062.8622 c 0,4.6944 -3.805579,8.5 -8.4999996,8.5 -4.6944204,0 -8.50000003,-3.8056 -8.50000003,-8.5 0,-4.6944 3.80557963,-8.5 8.50000003,-8.5 4.6944206,0 8.4999996,3.8056 8.4999996,8.5 z" color="#000" display="inline" enable-background="accumulate" overflow="visible" visibility="visible"/><circle id="circle4779" cx="-1062.862" cy="9.5" r="7.5" fill="url(#linearGradient4787)" fill-opacity="1" fill-rule="nonzero" stroke="none" stroke-width="8" d="m -1055.3622,9.4999952 c 0,4.1421248 -3.3579,7.4999798 -7.5,7.4999798 -4.1421,0 -7.5,-3.357855 -7.5,-7.4999798 0,-4.1421245 3.3579,-7.4999799 7.5,-7.4999799 4.1421,0 7.5,3.3578554 7.5,7.4999799 z" color="#000" display="inline" enable-background="accumulate" overflow="visible" transform="matrix(0,-1,1,0,0,0)" visibility="visible" style="marker:none"/><circle id="circle4781" cx="1062.862" cy="9.5" r="7" fill="none" stroke="url(#linearGradient4789)" stroke-dasharray="none" stroke-miterlimit="4" stroke-width="1" d="m 1069.8622,9.4999952 c 0,3.8659918 -3.134,6.9999978 -7,6.9999978 -3.866,0 -7,-3.134006 -7,-6.9999978 0,-3.8659919 3.134,-6.9999976 7,-6.9999976 3.866,0 7,3.1340057 7,6.9999976 z" color="#000" display="inline" enable-background="accumulate" opacity=".25" overflow="visible" transform="matrix(0,1,1,0,0,0)" visibility="visible" style="marker:none"/><circle id="circle4783" cx="1062.862" cy="9.5" r="7.25" fill="none" stroke="url(#linearGradient4791)" stroke-dasharray="none" stroke-miterlimit="4" stroke-width=".5" d="m 1070.1122,9.4999952 c 0,4.0040538 -3.246,7.2499798 -7.25,7.2499798 -4.0041,0 -7.25,-3.245926 -7.25,-7.2499798 0,-4.0040533 3.2459,-7.2499799 7.25,-7.2499799 4.004,0 7.25,3.2459266 7.25,7.2499799 z" color="#000" display="inline" enable-background="accumulate" opacity=".25" overflow="visible" transform="matrix(0,1,1,0,0,0)" visibility="visible" style="marker:none"/><rect stroke-width="1" style="marker:none" id="rect4785" width="19" height="19" x="0" y="1053.362" fill="none" stroke="none" color="#000" display="inline" enable-background="accumulate" overflow="visible" visibility="visible"/></g><path font-stretch="normal" style="text-indent:0;text-align:start;line-height:normal;text-transform:none;block-progression:tb;marker:none;isolation:auto;mix-blend-mode:normal;-inkscape-font-specification:sans-serif" id="path4646" fill="#fff" fill-opacity="1" stroke="none" stroke-width="1" d="m -288.40183,856.52418 -0.70703,0.707 0.35351,0.3535 1.94727,1.9473 -1.94727,1.9453 -0.35351,0.3535 0.70703,0.707 0.35351,-0.3535 1.94727,-1.9472 1.94726,1.9472 0.35352,0.3535 0.70703,-0.707 -0.35351,-0.3535 -1.94727,-1.9453 1.94727,-1.9473 0.35351,-0.3535 -0.70703,-0.707 -0.35352,0.3535 -1.94726,1.9472 -1.94727,-1.9472 -0.35351,-0.3535 z" baseline-shift="baseline" clip-rule="nonzero" color="#000" color-interpolation="sRGB" color-interpolation-filters="linearRGB" color-rendering="auto" direction="ltr" display="inline" enable-background="accumulate" font-family="sans-serif" font-style="normal" font-variant="normal" font-weight="normal" image-rendering="auto" letter-spacing="normal" opacity=".25" overflow="visible" shape-rendering="auto" text-anchor="start" text-decoration="none" text-rendering="auto" visibility="visible" word-spacing="normal" writing-mode="lr-tb"/><path font-family="sans-serif" style="text-indent:0;text-align:start;line-height:normal;text-transform:none;block-progression:tb;marker:none;isolation:auto;mix-blend-mode:normal;-inkscape-font-specification:sans-serif" id="path4535" fill="#525252" fill-opacity="1" stroke="none" stroke-width="1.1" d="m -283.80078,855.45312 -0.38867,0.38868 -4.59961,4.59961 -0.39063,0.38867 0.7793,0.7793 0.38867,-0.38868 4.59961,-4.60156 0.38867,-0.38867 -0.77734,-0.77735 z" baseline-shift="baseline" clip-rule="nonzero" color="#000" color-interpolation="sRGB" color-interpolation-filters="linearRGB" color-rendering="auto" direction="ltr" display="inline" enable-background="accumulate" font-stretch="normal" font-style="normal" font-variant="normal" font-weight="normal" image-rendering="auto" letter-spacing="normal" overflow="visible" shape-rendering="auto" text-anchor="start" text-decoration="none" text-rendering="auto" visibility="visible" word-spacing="normal" writing-mode="lr-tb"/><path font-family="sans-serif" style="text-indent:0;text-align:start;line-height:normal;text-transform:none;block-progression:tb;marker:none;isolation:auto;mix-blend-mode:normal;-inkscape-font-specification:sans-serif" id="path4537" fill="#525252" fill-opacity="1" stroke="none" stroke-width="1.1" d="m -288.40039,855.45312 -0.7793,0.77735 0.39063,0.38867 4.59961,4.60156 0.38867,0.38868 0.77734,-0.7793 -0.38867,-0.38867 -4.59961,-4.59961 -0.38867,-0.38868 z" baseline-shift="baseline" clip-rule="nonzero" color="#000" color-interpolation="sRGB" color-interpolation-filters="linearRGB" color-rendering="auto" direction="ltr" display="inline" enable-background="accumulate" font-stretch="normal" font-style="normal" font-variant="normal" font-weight="normal" image-rendering="auto" letter-spacing="normal" overflow="visible" shape-rendering="auto" text-anchor="start" text-decoration="none" text-rendering="auto" visibility="visible" word-spacing="normal" writing-mode="lr-tb"/></g></svg>