<svg xmlns="http://www.w3.org/2000/svg" xmlns:svg="http://www.w3.org/2000/svg" xmlns:xlink="http://www.w3.org/1999/xlink" id="svg5932" width="19" height="19" version="1.1" viewBox="0 0 19 19"><defs id="defs5934"><linearGradient id="linearGradient5201" x1="2" x2="17" y1="1062.862" y2="1062.862" gradientTransform="translate(-1072.3622,-1053.3622)" gradientUnits="userSpaceOnUse" xlink:href="#linearGradient5187"/><linearGradient id="linearGradient5187"><stop id="stop4560" offset="0" stop-color="#fcfbf8" stop-opacity="1"/><stop id="stop4562" offset="1" stop-color="#fbf9f6" stop-opacity="1"/></linearGradient><linearGradient id="linearGradient5203" x1="-1070.104" x2="-1055.621" y1="9.5" y2="9.5" gradientTransform="matrix(1.0357118,0,0,1.0357118,37.956735,-0.33926172)" gradientUnits="userSpaceOnUse" xlink:href="#linearGradient4297"/><linearGradient id="linearGradient4297"><stop id="stop4523" offset="0" stop-color="#fff" stop-opacity="1"/><stop id="stop4525" offset="1" stop-color="#bd9e82" stop-opacity="1"/></linearGradient><linearGradient id="linearGradient5205" x1="-1070.362" x2="-1055.362" y1="9" y2="9" gradientTransform="translate(3.4765625e-5,0)" gradientUnits="userSpaceOnUse" xlink:href="#linearGradient4297"/></defs><metadata id="metadata5937"/><g id="layer1" transform="translate(-887.71427,17.209217)"><g id="g5189" display="inline" transform="translate(887.71428,-1070.5714)"><circle stroke-width="8" style="marker:none" id="circle5191" cx="9.5" cy="1062.862" r="8.5" fill="#ddd4cb" fill-opacity="1" fill-rule="nonzero" stroke="none" d="m 17.999992,1062.8622 a 8.5,8.5 0 0 1 -8.4999996,8.5 8.5,8.5 0 0 1 -8.50000003,-8.5 8.5,8.5 0 0 1 8.50000003,-8.5 8.5,8.5 0 0 1 8.4999996,8.5 z" color="#000" display="inline" enable-background="accumulate" overflow="visible" visibility="visible"/><circle id="circle5193" cx="-1062.862" cy="9.5" r="7.5" fill="url(#linearGradient5201)" fill-opacity="1" fill-rule="nonzero" stroke="none" stroke-width="8" d="m -1055.3622,9.4999952 a 7.49998,7.49998 0 0 1 -7.5,7.4999798 7.49998,7.49998 0 0 1 -7.5,-7.4999798 7.49998,7.49998 0 0 1 7.5,-7.4999799 7.49998,7.49998 0 0 1 7.5,7.4999799 z" color="#000" display="inline" enable-background="accumulate" overflow="visible" transform="matrix(0,-1,1,0,0,0)" visibility="visible" style="marker:none"/><circle id="circle5195" cx="-1062.862" cy="9.5" r="7.25" fill="none" stroke="url(#linearGradient5203)" stroke-dasharray="none" stroke-miterlimit="4" stroke-width=".5" d="m -1055.6122,9.4999952 a 7.24998,7.24998 0 0 1 -7.25,7.2499798 7.24998,7.24998 0 0 1 -7.25,-7.2499798 7.24998,7.24998 0 0 1 7.25,-7.2499799 7.24998,7.24998 0 0 1 7.25,7.2499799 z" color="#000" display="inline" enable-background="accumulate" opacity=".05" overflow="visible" transform="matrix(0,-1,1,0,0,0)" visibility="visible" style="marker:none"/><circle id="circle5197" cx="-1062.862" cy="9.5" r="7" fill="none" stroke="url(#linearGradient5205)" stroke-dasharray="none" stroke-miterlimit="4" stroke-width="1" d="m -1055.8622,9.4999952 a 6.9999976,6.9999976 0 0 1 -7,6.9999978 6.9999976,6.9999976 0 0 1 -7,-6.9999978 6.9999976,6.9999976 0 0 1 7,-6.9999976 6.9999976,6.9999976 0 0 1 7,6.9999976 z" color="#000" display="inline" enable-background="accumulate" opacity=".05" overflow="visible" transform="matrix(0,-1,1,0,0,0)" visibility="visible" style="marker:none"/><rect stroke-width="1" style="marker:none" id="rect5199" width="19" height="19" x="0" y="1053.362" fill="none" stroke="none" color="#000" display="inline" enable-background="accumulate" overflow="visible" visibility="visible"/></g><path id="path5243" fill="#8b8379" fill-opacity="1" stroke="none" stroke-width="1" d="m 893.71427,-11.208178 0,0.5 0,6.4999998 7,0 0,-6.9999998 -7,0 z m 1,1 5,0 0,4.9999998 -5,0 0,-4.9999998 z" baseline-shift="baseline" clip-rule="nonzero" color="#000" color-interpolation="sRGB" color-interpolation-filters="linearRGB" color-rendering="auto" direction="ltr" display="inline" enable-background="accumulate" font-family="sans-serif" font-stretch="normal" font-style="normal" font-variant="normal" font-weight="normal" image-rendering="auto" letter-spacing="normal" overflow="visible" shape-rendering="auto" text-anchor="start" text-decoration="none" text-rendering="auto" visibility="visible" word-spacing="normal" writing-mode="lr-tb" style="text-indent:0;text-align:start;line-height:normal;text-transform:none;block-progression:tb;marker:none;isolation:auto;mix-blend-mode:normal;-inkscape-font-specification:sans-serif"/></g></svg>