<svg xmlns="http://www.w3.org/2000/svg" xmlns:xlink="http://www.w3.org/1999/xlink" id="svg8552" width="19" height="19" version="1.1" viewBox="0 0 19 19"><defs id="defs8554"><linearGradient id="linearGradient4747" x1="-6" x2="6" y1="967.36" y2="967.36" gradientTransform="matrix(1.0833 0 0 1.0833 966.86 -1057.5)" gradientUnits="userSpaceOnUse"><stop id="stop4668" offset="0" stop-color="#191919" stop-opacity=".4"/><stop id="stop4700" offset=".5" stop-color="#595959" stop-opacity=".102"/><stop id="stop4670" offset="1" stop-color="#fff" stop-opacity=".243"/></linearGradient></defs><metadata id="metadata8557"/><g id="layer1" transform="translate(-435.29 -180.93)"><g id="g4731" transform="translate(435.29 -776.43)"><circle id="circle4733" cx="966.86" cy="-9.5" r="6.5" fill="url(#linearGradient4747)" d="m 973.36224,-9.5000038 a 6.5,6.5 0 0 1 -6.5,6.5 6.5,6.5 0 0 1 -6.5,-6.5 6.5,6.5 0 0 1 6.5,-6.5000002 6.5,6.5 0 0 1 6.5,6.5000002 z" color="#000" transform="rotate(90)"/><circle id="circle5388-4" cx="9.5" cy="967.86" r="3.5" d="m 12.999998,967.86218 a 3.4999948,3.4999948 0 0 1 -3.4999951,3.5 3.4999948,3.4999948 0 0 1 -3.4999948,-3.5 3.4999948,3.4999948 0 0 1 3.4999948,-3.49999 3.4999948,3.4999948 0 0 1 3.4999951,3.49999 z" color="#000" opacity=".1"/><circle id="circle4735" cx="9.5" cy="966.86" r="3" fill="#555351" stroke="#6c6967" d="m 12.500003,966.86218 a 3,3 0 0 1 -3.0000001,3 3,3 0 0 1 -3,-3 3,3 0 0 1 3,-3 3,3 0 0 1 3.0000001,3 z" color="#000"/><path id="path4737" d="m9.5 960.36a6.5 6.5 0 0 0 -6.5 6.5 6.5 6.5 0 0 0 0.023438 0.5293 6.5 6.5 0 0 1 6.4766 -6.0293 6.5 6.5 0 0 1 6.4766 5.9707 6.5 6.5 0 0 0 0.02344 -0.4707 6.5 6.5 0 0 0 -6.5 -6.5z" color="#000" opacity=".1"/><path id="path4739" fill="#fff" d="m15.977 966.33a6.5 6.5 0 0 1 -6.4766 6.0293 6.5 6.5 0 0 1 -6.4766 -5.9707 6.5 6.5 0 0 0 -0.023438 0.4707 6.5 6.5 0 0 0 6.5 6.5 6.5 6.5 0 0 0 6.5 -6.5 6.5 6.5 0 0 0 -0.02344 -0.5293z" color="#000" opacity=".2"/><path id="path4741" fill="#fff" d="m15.99 966.56a6.5 6.5 0 0 1 -6.4902 6.3008 6.5 6.5 0 0 1 -6.4902 -6.1992 6.5 6.5 0 0 0 -0.00977 0.19922 6.5 6.5 0 0 0 6.5 6.5 6.5 6.5 0 0 0 6.5 -6.5 6.5 6.5 0 0 0 -0.0098 -0.30078z" color="#000" opacity=".2"/><path id="path4743" d="m9.5 960.36a6.5 6.5 0 0 0 -6.5 6.5 6.5 6.5 0 0 0 0.00977 0.30078 6.5 6.5 0 0 1 6.4902 -6.3008 6.5 6.5 0 0 1 6.4902 6.1992 6.5 6.5 0 0 0 0.0098 -0.19922 6.5 6.5 0 0 0 -6.5 -6.5z" color="#000" opacity=".1"/><rect id="rect4745" width="19" height="19" x="0" y="957.36" fill="none" color="#000" opacity=".1"/></g></g></svg>