<svg xmlns="http://www.w3.org/2000/svg" xmlns:svg="http://www.w3.org/2000/svg" xmlns:xlink="http://www.w3.org/1999/xlink" id="svg7526" width="19" height="19" version="1.1" viewBox="0 0 19 19"><defs id="defs7528"><linearGradient id="linearGradient4841" x1="2" x2="17" y1="1062.862" y2="1062.862" gradientTransform="translate(-1072.3622,-1053.3622)" gradientUnits="userSpaceOnUse" xlink:href="#linearGradient4773"/><linearGradient id="linearGradient4773"><stop id="stop5017" offset="0" stop-color="#d5d2ce" stop-opacity="1"/><stop id="stop5019" offset=".5" stop-color="#ece8e4" stop-opacity="1"/><stop id="stop5021" offset="1" stop-color="#f7f4f3" stop-opacity="1"/></linearGradient><linearGradient id="linearGradient4843" x1="-1065.362" x2="-1057.149" y1="9.5" y2="9.5" gradientTransform="translate(2125.7244,0)" gradientUnits="userSpaceOnUse" xlink:href="#linearGradient4521"/><linearGradient id="linearGradient4521"><stop id="stop4293" offset="0" stop-color="#fff" stop-opacity="1"/><stop id="stop4295" offset="1" stop-color="#fff" stop-opacity="0"/></linearGradient><linearGradient id="linearGradient4845" x1="-1065.276" x2="-1057.346" y1="9.5" y2="9.5" gradientTransform="matrix(1.0357118,0,0,1.0357118,2163.6811,-0.33926172)" gradientUnits="userSpaceOnUse" xlink:href="#linearGradient4521"/></defs><metadata id="metadata7531"/><g id="layer1" transform="translate(-156.21429,-617.1479)"><g id="g4828" display="inline" transform="translate(156.21429,-436.21428)"><circle stroke-width="8" style="marker:none" id="circle4830" cx="9.5" cy="1062.862" r="8.5" fill="#d0c7bf" fill-opacity="1" fill-rule="nonzero" stroke="none" d="m 17.999992,1062.8622 a 8.5,8.5 0 0 1 -8.4999996,8.5 8.5,8.5 0 0 1 -8.50000003,-8.5 8.5,8.5 0 0 1 8.50000003,-8.5 8.5,8.5 0 0 1 8.4999996,8.5 z" color="#000" display="inline" enable-background="accumulate" overflow="visible" visibility="visible"/><circle id="circle4832" cx="-1062.862" cy="9.5" r="7.5" fill="url(#linearGradient4841)" fill-opacity="1" fill-rule="nonzero" stroke="none" stroke-width="8" d="m -1055.3622,9.4999952 a 7.49998,7.49998 0 0 1 -7.5,7.4999798 7.49998,7.49998 0 0 1 -7.5,-7.4999798 7.49998,7.49998 0 0 1 7.5,-7.4999799 7.49998,7.49998 0 0 1 7.5,7.4999799 z" color="#000" display="inline" enable-background="accumulate" overflow="visible" transform="matrix(0,-1,1,0,0,0)" visibility="visible" style="marker:none"/><circle id="circle4834" cx="1062.862" cy="9.5" r="7" fill="none" stroke="url(#linearGradient4843)" stroke-dasharray="none" stroke-miterlimit="4" stroke-width="1" d="m 1069.8622,9.4999952 a 6.9999976,6.9999976 0 0 1 -7,6.9999978 6.9999976,6.9999976 0 0 1 -7,-6.9999978 6.9999976,6.9999976 0 0 1 7,-6.9999976 6.9999976,6.9999976 0 0 1 7,6.9999976 z" color="#000" display="inline" enable-background="accumulate" opacity=".5" overflow="visible" transform="matrix(0,1,1,0,0,0)" visibility="visible" style="marker:none"/><circle id="circle4836" cx="1062.862" cy="9.5" r="7.25" fill="none" stroke="url(#linearGradient4845)" stroke-dasharray="none" stroke-miterlimit="4" stroke-width=".5" d="m 1070.1122,9.4999952 a 7.24998,7.24998 0 0 1 -7.25,7.2499798 7.24998,7.24998 0 0 1 -7.25,-7.2499798 7.24998,7.24998 0 0 1 7.25,-7.2499799 7.24998,7.24998 0 0 1 7.25,7.2499799 z" color="#000" display="inline" enable-background="accumulate" opacity=".5" overflow="visible" transform="matrix(0,1,1,0,0,0)" visibility="visible" style="marker:none"/><rect stroke-width="1" style="marker:none" id="rect4839" width="19" height="19" x="0" y="1053.362" fill="none" stroke="none" color="#000" display="inline" enable-background="accumulate" overflow="visible" visibility="visible"/></g><rect id="rect4834" width="7" height="1" x="162.214" y="626.148" fill="#8b8379" fill-opacity="1" stroke="none" stroke-width="1" color="#000" display="inline" enable-background="accumulate" overflow="visible" visibility="visible" style="marker:none"/><rect stroke-width="1" style="marker:none" id="rect4836" width="7" height="1" x="162.214" y="627.148" fill="#fff" fill-opacity="1" stroke="none" color="#000" display="inline" enable-background="accumulate" opacity=".5" overflow="visible" visibility="visible"/></g></svg>