<svg xmlns="http://www.w3.org/2000/svg" xmlns:svg="http://www.w3.org/2000/svg" xmlns:xlink="http://www.w3.org/1999/xlink" id="svg5932" width="19" height="19" version="1.1" viewBox="0 0 19 19"><defs id="defs5934"><linearGradient id="linearGradient5133" x1="2" x2="17" y1="1062.862" y2="1062.862" gradientTransform="translate(-1072.3622,-1053.3622)" gradientUnits="userSpaceOnUse" xlink:href="#linearGradient5023"/><linearGradient id="linearGradient5023"><stop id="stop4157" offset="0" stop-color="#e2e1df" stop-opacity="1"/><stop id="stop4159" offset=".5" stop-color="#f8f6f3" stop-opacity="1"/><stop id="stop4161" offset="1" stop-color="#fcfbf9" stop-opacity="1"/></linearGradient><linearGradient id="linearGradient5135" x1="-1065.362" x2="-1057.149" y1="9.5" y2="9.5" gradientTransform="translate(2125.7244,0)" gradientUnits="userSpaceOnUse" xlink:href="#linearGradient4521"/><linearGradient id="linearGradient4521"><stop id="stop4293" offset="0" stop-color="#fff" stop-opacity="1"/><stop id="stop4295" offset="1" stop-color="#fff" stop-opacity="0"/></linearGradient><linearGradient id="linearGradient5137" x1="-1065.276" x2="-1057.346" y1="9.5" y2="9.5" gradientTransform="matrix(1.0357118,0,0,1.0357118,2163.6811,-0.33926172)" gradientUnits="userSpaceOnUse" xlink:href="#linearGradient4521"/></defs><metadata id="metadata5937"/><g id="layer1" transform="translate(-1505.9286,-18.862183)"><g id="g5097" display="inline" transform="translate(1505.9286,-1034.5)"><circle id="circle5099" cx="9.5" cy="1062.862" r="8.5" fill="#d0c7bf" fill-opacity="1" fill-rule="nonzero" stroke="none" stroke-width="8" d="m 17.999992,1062.8622 a 8.5,8.5 0 0 1 -8.4999996,8.5 8.5,8.5 0 0 1 -8.50000003,-8.5 8.5,8.5 0 0 1 8.50000003,-8.5 8.5,8.5 0 0 1 8.4999996,8.5 z" color="#000" display="inline" enable-background="accumulate" overflow="visible" visibility="visible" style="marker:none"/><circle id="circle5101" cx="-1062.862" cy="9.5" r="7.5" fill="url(#linearGradient5133)" fill-opacity="1" fill-rule="nonzero" stroke="none" stroke-width="8" d="m -1055.3622,9.4999952 a 7.49998,7.49998 0 0 1 -7.5,7.4999798 7.49998,7.49998 0 0 1 -7.5,-7.4999798 7.49998,7.49998 0 0 1 7.5,-7.4999799 7.49998,7.49998 0 0 1 7.5,7.4999799 z" color="#000" display="inline" enable-background="accumulate" overflow="visible" transform="matrix(0,-1,1,0,0,0)" visibility="visible" style="marker:none"/><circle id="circle5103" cx="1062.862" cy="9.5" r="7" fill="none" stroke="url(#linearGradient5135)" stroke-dasharray="none" stroke-miterlimit="4" stroke-width="1" d="m 1069.8622,9.4999952 a 6.9999976,6.9999976 0 0 1 -7,6.9999978 6.9999976,6.9999976 0 0 1 -7,-6.9999978 6.9999976,6.9999976 0 0 1 7,-6.9999976 6.9999976,6.9999976 0 0 1 7,6.9999976 z" color="#000" display="inline" enable-background="accumulate" opacity=".5" overflow="visible" transform="matrix(0,1,1,0,0,0)" visibility="visible" style="marker:none"/><circle id="circle5105" cx="1062.862" cy="9.5" r="7.25" fill="none" stroke="url(#linearGradient5137)" stroke-dasharray="none" stroke-miterlimit="4" stroke-width=".5" d="m 1070.1122,9.4999952 a 7.24998,7.24998 0 0 1 -7.25,7.2499798 7.24998,7.24998 0 0 1 -7.25,-7.2499798 7.24998,7.24998 0 0 1 7.25,-7.2499799 7.24998,7.24998 0 0 1 7.25,7.2499799 z" color="#000" display="inline" enable-background="accumulate" opacity=".5" overflow="visible" transform="matrix(0,1,1,0,0,0)" visibility="visible" style="marker:none"/><rect id="rect5107" width="19" height="19" x="0" y="1053.362" fill="none" stroke="none" stroke-width="1" color="#000" display="inline" enable-background="accumulate" overflow="visible" visibility="visible" style="marker:none"/></g><path font-stretch="normal" style="text-indent:0;text-align:start;line-height:normal;text-transform:none;block-progression:tb;marker:none;isolation:auto;mix-blend-mode:normal;-inkscape-font-specification:sans-serif" id="path5117" fill="#fff" fill-opacity="1" stroke="none" stroke-width="1" d="m 1511.9286,26.86125 0,0.5 0,4.5 7,0 0,-5 -7,0 z m 1,1 5,0 0,3 -5,0 0,-3 z" baseline-shift="baseline" clip-rule="nonzero" color="#000" color-interpolation="sRGB" color-interpolation-filters="linearRGB" color-rendering="auto" direction="ltr" display="inline" enable-background="accumulate" font-family="sans-serif" font-style="normal" font-variant="normal" font-weight="normal" image-rendering="auto" letter-spacing="normal" opacity=".5" overflow="visible" shape-rendering="auto" text-anchor="start" text-decoration="none" text-rendering="auto" visibility="visible" word-spacing="normal" writing-mode="lr-tb"/><path font-family="sans-serif" style="text-indent:0;text-align:start;line-height:normal;text-transform:none;block-progression:tb;marker:none;isolation:auto;mix-blend-mode:normal;-inkscape-font-specification:sans-serif" id="path5119" fill="#8b8379" fill-opacity="1" stroke="none" stroke-width="1" d="m 1511.9286,25.86125 0,0.5 0,4.5 7,0 0,-5 -7,0 z m 1,1 5,0 0,3 -5,0 0,-3 z" baseline-shift="baseline" clip-rule="nonzero" color="#000" color-interpolation="sRGB" color-interpolation-filters="linearRGB" color-rendering="auto" direction="ltr" display="inline" enable-background="accumulate" font-stretch="normal" font-style="normal" font-variant="normal" font-weight="normal" image-rendering="auto" letter-spacing="normal" overflow="visible" shape-rendering="auto" text-anchor="start" text-decoration="none" text-rendering="auto" visibility="visible" word-spacing="normal" writing-mode="lr-tb"/></g></svg>